<svg width="18" height="12" viewBox="0 0 18 12" fill="none" xmlns="http://www.w3.org/2000/svg">
<path d="M9.70236 11.0002L17.7124 2.99002C17.8979 2.80475 18 2.55744 18 2.29373C18 2.03003 17.8979 1.78271 17.7124 1.59744L17.1227 1.00755C16.7384 0.623696 16.1138 0.623696 15.7301 1.00755L9.00373 7.73393L2.26988 1.00008C2.08447 0.814816 1.8373 0.712524 1.57374 0.712524C1.30989 0.712524 1.06272 0.814816 0.877163 1.00008L0.287558 1.58998C0.102144 1.77539 -5.72636e-08 2.02256 -6.87905e-08 2.28627C-8.03174e-08 2.54997 0.102144 2.79729 0.287558 2.98255L8.30496 11.0002C8.49095 11.186 8.73929 11.288 9.00329 11.2874C9.26831 11.288 9.51651 11.186 9.70236 11.0002Z" fill="black"/>
</svg>
