<svg width="18" height="12" viewBox="0 0 18 12" fill="none" xmlns="http://www.w3.org/2000/svg">
<path d="M9.70236 11.0003L17.7124 2.99008C17.8979 2.80481 18 2.5575 18 2.29379C18 2.03009 17.8979 1.78277 17.7124 1.59751L17.1227 1.00761C16.7384 0.623757 16.1138 0.623757 15.7301 1.00761L9.00373 7.73399L2.26988 1.00014C2.08447 0.814877 1.8373 0.712585 1.57374 0.712585C1.30989 0.712585 1.06272 0.814877 0.877163 1.00014L0.287558 1.59004C0.102144 1.77545 -5.72636e-08 2.02262 -6.87905e-08 2.28633C-8.03174e-08 2.55003 0.102144 2.79735 0.287558 2.98261L8.30496 11.0003C8.49095 11.186 8.73929 11.288 9.00329 11.2874C9.26831 11.288 9.51651 11.186 9.70236 11.0003Z" fill="black"/>
</svg>
