<svg width="15" height="15" viewBox="0 0 15 15" fill="none" xmlns="http://www.w3.org/2000/svg">
<path d="M9.94336 7.57687L15.0002 10.7737V4.245L9.94336 7.57687Z" fill="#4A5FFF"/>
<path d="M0 4.245V10.7737L5.05687 7.57687L0 4.245Z" fill="#4A5FFF"/>
<path d="M14.0627 2.34375H0.937695C0.469883 2.34375 0.0986328 2.6925 0.0283203 3.14156L7.50019 8.06437L14.9721 3.14156C14.9018 2.6925 14.5305 2.34375 14.0627 2.34375Z" fill="#4A5FFF"/>
<path d="M9.08465 8.14327L7.75809 9.01702C7.67934 9.06858 7.59027 9.0939 7.50027 9.0939C7.41027 9.0939 7.32121 9.06858 7.24246 9.01702L5.9159 8.14233L0.0302734 11.8651C0.102461 12.3105 0.471836 12.6564 0.937773 12.6564H14.0628C14.5287 12.6564 14.8981 12.3105 14.9703 11.8651L9.08465 8.14327Z" fill="#4A5FFF"/>
</svg>
