<svg width="14" height="9" viewBox="0 0 14 9" fill="none" xmlns="http://www.w3.org/2000/svg">
<path fill-rule="evenodd" clip-rule="evenodd" d="M2.19816 0.599976H0.710323C0.285221 0.599976 0.200195 0.800066 0.200195 1.02064C0.200195 1.41466 0.704611 3.36876 2.54883 5.95323C3.77831 7.71821 5.51053 8.67497 7.08681 8.67497C8.03256 8.67497 8.14956 8.46247 8.14956 8.09646V6.76247C8.14956 6.33747 8.23915 6.25264 8.53861 6.25264C8.75931 6.25264 9.1376 6.36297 10.0203 7.21395C11.0291 8.22252 11.1954 8.67497 11.7629 8.67497H13.2507C13.6758 8.67497 13.8884 8.46247 13.7658 8.04312C13.6316 7.62518 13.1499 7.01875 12.5108 6.29994C12.164 5.8902 11.6439 5.44897 11.4862 5.22831C11.2656 4.94466 11.3286 4.81857 11.4862 4.56646C11.4862 4.56646 13.2989 2.01348 13.4881 1.14678C13.5827 0.831558 13.4881 0.599976 13.0382 0.599976H11.5503C11.172 0.599976 10.9976 0.800066 10.903 1.02064C10.903 1.02064 10.1464 2.86446 9.07457 4.06215C8.72777 4.40882 8.57014 4.51915 8.38097 4.51915C8.28641 4.51915 8.14952 4.40882 8.14952 4.09369V1.14678C8.14952 0.768531 8.03974 0.599976 7.72443 0.599976H5.38638C5.15 0.599976 5.00779 0.7755 5.00779 0.941888C5.00779 1.30042 5.54372 1.38312 5.59897 2.39169V4.58222C5.59897 5.06247 5.51218 5.14956 5.32306 5.14956C4.81867 5.14956 3.59174 3.29749 2.86405 1.17827C2.72146 0.766363 2.57841 0.599976 2.19816 0.599976Z" fill="#454545"/>
</svg>
