<svg width="12" height="11" viewBox="0 0 12 11" fill="none" xmlns="http://www.w3.org/2000/svg">
<path fill-rule="evenodd" clip-rule="evenodd" d="M0.867868 5.1455C4.06224 3.75376 6.19233 2.83624 7.25812 2.39294C10.3012 1.12723 10.9335 0.907362 11.3456 0.900102C11.4363 0.898505 11.639 0.92097 11.7702 1.0275C11.8811 1.11745 11.9116 1.23896 11.9262 1.32425C11.9408 1.40953 11.959 1.60381 11.9445 1.75561C11.7796 3.48827 11.0661 7.69299 10.7031 9.6336C10.5495 10.4547 10.247 10.7301 9.95421 10.757C9.31788 10.8156 8.83468 10.3365 8.21836 9.93248C7.25395 9.30029 6.70912 8.90676 5.77298 8.28986C4.69112 7.57693 5.39245 7.18509 6.009 6.54471C6.17035 6.37712 8.97404 3.82695 9.0283 3.59561C9.03509 3.56668 9.04139 3.45883 8.97732 3.40188C8.91325 3.34493 8.81869 3.36441 8.75045 3.3799C8.65372 3.40185 7.11305 4.42017 4.12845 6.43487C3.69114 6.73516 3.29503 6.88147 2.94014 6.8738C2.54889 6.86535 1.79629 6.65259 1.23682 6.47072C0.550592 6.24766 0.00519577 6.12972 0.0526876 5.75089C0.0774242 5.55357 0.349151 5.35177 0.867868 5.1455Z" fill="#454545"/>
</svg>
