<svg width="11" height="10" viewBox="0 0 11 10" fill="none" xmlns="http://www.w3.org/2000/svg">
<path d="M5.98745 5.00815L9.88126 1.11423C10.1347 0.860949 10.1347 0.451425 9.88126 0.198141C9.62797 -0.0551421 9.21845 -0.0551421 8.96517 0.198141L5.07124 4.09206L1.17743 0.198141C0.924031 -0.0551421 0.514625 -0.0551421 0.261341 0.198141C0.00793848 0.451425 0.00793848 0.860949 0.261341 1.11423L4.15515 5.00815L0.261341 8.90207C0.00793848 9.15536 0.00793848 9.56488 0.261341 9.81817C0.387567 9.94451 0.553536 10.008 0.719387 10.008C0.885237 10.008 1.05109 9.94451 1.17743 9.81817L5.07124 5.92424L8.96517 9.81817C9.09151 9.94451 9.25736 10.008 9.42321 10.008C9.58906 10.008 9.75491 9.94451 9.88126 9.81817C10.1347 9.56488 10.1347 9.15536 9.88126 8.90207L5.98745 5.00815Z" fill="black"/>
</svg>
