<svg width="11" height="11" viewBox="0 0 11 11" fill="none" xmlns="http://www.w3.org/2000/svg">
<path d="M10.9769 8.52299C10.9458 8.42924 10.7479 8.29114 10.3832 8.10901C10.2844 8.0516 10.1437 7.97359 9.96155 7.87462C9.77925 7.77564 9.61379 7.68444 9.46545 7.60109C9.31681 7.51777 9.17756 7.43705 9.04745 7.35904C9.02665 7.34341 8.96156 7.29791 8.85218 7.22222C8.7427 7.14675 8.65038 7.09074 8.57472 7.05421C8.49922 7.0179 8.42496 6.99962 8.35204 6.99962C8.24789 6.99962 8.11781 7.07388 7.96162 7.22222C7.80543 7.37075 7.66215 7.53208 7.53201 7.70672C7.40185 7.88127 7.2638 8.0426 7.11812 8.19105C6.97222 8.33955 6.85234 8.41373 6.7587 8.41373C6.71169 8.41373 6.65308 8.40062 6.58284 8.37476C6.51262 8.34874 6.45921 8.32644 6.42254 8.30846C6.3862 8.2901 6.32384 8.25376 6.23524 8.1989C6.14647 8.1442 6.09711 8.11424 6.08671 8.10901C5.37321 7.71309 4.76129 7.25995 4.25083 6.74971C3.74053 6.23917 3.28734 5.62729 2.89153 4.91371C2.88633 4.90329 2.85631 4.85379 2.80167 4.7653C2.74694 4.67672 2.71046 4.6143 2.69224 4.57775C2.67402 4.54133 2.65188 4.48791 2.62588 4.41762C2.59989 4.34732 2.58684 4.28876 2.58684 4.24183C2.58684 4.14814 2.66107 4.02829 2.80952 3.88244C2.95794 3.73668 3.11944 3.59861 3.29385 3.46849C3.4684 3.33838 3.62973 3.19511 3.77821 3.03892C3.92663 2.88264 4.00084 2.7525 4.00084 2.64836C4.00084 2.57549 3.98261 2.5012 3.94619 2.4257C3.90974 2.35004 3.85376 2.25772 3.77821 2.14829C3.70263 2.03892 3.65707 1.97388 3.64142 1.95295C3.56338 1.82284 3.48274 1.68353 3.39931 1.53508C3.31588 1.38666 3.22481 1.22123 3.12581 1.03896C3.02689 0.856773 2.94883 0.716098 2.89147 0.617152C2.70929 0.252646 2.57129 0.0546446 2.47752 0.0235051C2.44104 0.00788064 2.38632 0 2.31348 0C2.17277 0 1.98922 0.0259952 1.76268 0.0781496C1.53606 0.130222 1.35773 0.184839 1.22751 0.24222C0.967093 0.351537 0.691079 0.669225 0.399386 1.19518C0.133771 1.68465 0.000976562 2.16912 0.000976562 2.64822C0.000976562 2.78873 0.0100885 2.92544 0.0283125 3.05837C0.0465365 3.19117 0.0790988 3.34092 0.126027 3.50762C0.172873 3.67426 0.210662 3.79806 0.239229 3.87867C0.267823 3.95934 0.321209 4.10384 0.399359 4.31224C0.477399 4.52058 0.524327 4.64813 0.539952 4.695C0.722219 5.20543 0.938361 5.66112 1.18833 6.06218C1.5996 6.72881 2.16084 7.41773 2.87174 8.12868C3.58267 8.83958 4.27146 9.40081 4.93814 9.81224C5.33915 10.0622 5.79499 10.2783 6.30535 10.4607C6.35225 10.4762 6.47979 10.5231 6.68805 10.6014C6.89639 10.6795 7.04095 10.7329 7.12162 10.7615C7.20231 10.7902 7.32613 10.828 7.49264 10.8749C7.6595 10.9219 7.80912 10.9544 7.94192 10.9728C8.07479 10.9908 8.21153 11 8.35207 11C8.83114 11 9.31564 10.8672 9.80519 10.6016C10.3311 10.31 10.6487 10.0339 10.7581 9.7733C10.8156 9.64322 10.8701 9.46484 10.9221 9.23821C10.9744 9.0117 11.0003 8.82817 11.0003 8.6875C11.0005 8.61436 10.9926 8.55977 10.9769 8.52299Z" fill="#4A5FFF"/>
</svg>
