<svg width="14" height="14" viewBox="0 0 14 14" fill="none" xmlns="http://www.w3.org/2000/svg">
<path d="M7.72473 6.35802L7.72465 0.851263C7.72474 0.492981 7.43516 0.203404 7.07688 0.203488C6.71868 0.203488 6.4291 0.493066 6.4291 0.851263L6.4291 6.3581L0.922345 6.35802C0.564064 6.35811 0.27457 6.6476 0.27457 7.0058C0.274486 7.36408 0.564063 7.65365 0.922344 7.65357L6.4291 7.65365L6.42918 13.1604C6.4291 13.5187 6.71867 13.8083 7.07695 13.8082C7.25555 13.8083 7.41779 13.7358 7.53506 13.6185C7.65233 13.5012 7.72473 13.3391 7.72473 13.1604L7.72465 7.65365L13.2315 7.65365C13.4102 7.65365 13.5723 7.58125 13.6896 7.46398C13.8069 7.3467 13.8793 7.18455 13.8793 7.00587C13.8793 6.64759 13.5898 6.35801 13.2315 6.3581L7.72473 6.35802Z" fill="black"/>
</svg>
