<svg width="12" height="14" viewBox="0 0 12 14" fill="none" xmlns="http://www.w3.org/2000/svg">
<path d="M1.83219 4.20515V5.66694H1.73493C1.12275 5.66694 0.625 6.16469 0.625 6.77687V12.8901C0.625 13.5022 1.12275 14 1.73493 14H10.2654C10.8776 14 11.3753 13.5022 11.3753 12.8901V6.77401C11.3753 6.16183 10.8776 5.66408 10.2654 5.66408H10.2368V4.20229C10.2368 1.88517 8.3516 0 6.03448 0C3.71736 0.00286065 1.83219 1.88803 1.83219 4.20515ZM6.6581 10.1038C6.57228 10.1667 6.5494 10.2268 6.5494 10.3269C6.55226 10.7761 6.55226 11.2223 6.55226 11.6714C6.56084 11.8574 6.46644 12.0405 6.30052 12.1234C5.90861 12.3237 5.5167 12.0433 5.5167 11.6714V11.6686C5.5167 11.2195 5.5167 10.7703 5.51956 10.3212C5.51956 10.2297 5.49954 10.1696 5.41944 10.1095C5.01323 9.80915 4.87878 9.2971 5.08189 8.84798C5.27927 8.4103 5.76272 8.15284 6.21756 8.24438C6.7239 8.34736 7.07576 8.75358 7.08148 9.25991C7.08148 9.61177 6.94131 9.89783 6.6581 10.1038ZM3.67159 4.20515C3.67159 2.90069 4.73289 1.84226 6.03448 1.84226C7.33894 1.84226 8.39738 2.90356 8.39738 4.20515V5.66694H3.67159V4.20515Z" fill="#4A5FFF"/>
</svg>
